<?xml version="1.0" encoding="UTF-8"?><svg id="Capa_1" xmlns="http://www.w3.org/2000/svg" viewBox="0 0 234.2 39.1"><defs><style>.cls-1{fill:#1e1e1c;}</style></defs><path class="cls-1" d="M2.15,28.99V5.37c0-.74.6-1.34,1.34-1.34h5.95c.74,0,1.34.6,1.34,1.34v23.62c0,.74-.6,1.34-1.34,1.34H3.5c-.74,0-1.34-.6-1.34-1.34Z"/><path class="cls-1" d="M14.65,28.99V12.52c0-.74.6-1.34,1.34-1.34h5.27c.74,0,1.34.6,1.34,1.34v2.83c.58-1.43,1.46-2.52,2.62-3.29,1.16-.77,2.54-1.15,4.15-1.15,2.5,0,4.44.86,5.81,2.58,1.38,1.72,2.06,4.15,2.06,7.28v8.22c0,.74-.6,1.34-1.34,1.34h-5.38c-.74,0-1.34-.6-1.34-1.34v-8.64c0-2.27-.92-3.4-2.75-3.4-1.1,0-1.99.4-2.68,1.2-.69.8-1.03,1.88-1.03,3.23v7.6c0,.74-.6,1.34-1.34,1.34h-5.38c-.74,0-1.34-.6-1.34-1.34Z"/><path class="cls-1" d="M52.26,37.79c-.97,0-2.07-.08-3.06-.25-.94-.16-1.57-1.06-1.46-2.01l.44-3.94c.94.2,2.08.35,3.06.34,1.71,0,2.94-.36,3.69-1.07.75-.71,1.13-1.81,1.13-3.29v-1.8c-.71,1.4-1.59,2.43-2.64,3.1-1.04.66-2.36.99-3.94.99-1.81,0-3.44-.41-4.89-1.24-1.45-.83-2.59-1.96-3.42-3.4-.83-1.44-1.24-3.09-1.24-4.95s.41-3.49,1.24-4.89,1.97-2.5,3.42-3.29c1.45-.79,3.08-1.19,4.89-1.19,1.27,0,2.5.34,3.67,1.01,1.17.68,2.06,1.77,2.67,3.27v-2.67c0-.74.6-1.34,1.34-1.34h5.34c.74,0,1.34.6,1.34,1.34v13.34c0,4.08-1.01,7.08-3.02,9.02-2.01,1.93-4.87,2.9-8.56,2.9ZM51.96,23.83c1.09,0,2.01-.35,2.75-1.03.74-.69,1.11-1.52,1.11-2.48s-.37-1.77-1.11-2.41c-.74-.64-1.66-.96-2.75-.96-1.17,0-2.13.33-2.89.99-.75.66-1.13,1.48-1.13,2.45s.38,1.75,1.13,2.43,1.71,1.01,2.89,1.01Z"/><path class="cls-1" d="M79.56,25.29c.74,0,1.52-.08,2.35-.23s1.67-.43,2.54-.84l.73,3.91c.11.6-.19,1.23-.76,1.46-.67.28-1.38.5-2.13.67-1.11.25-2.38.38-3.8.38-2.57,0-4.73-.42-6.48-1.26-1.74-.84-3.06-2-3.96-3.48-.89-1.48-1.34-3.19-1.34-5.12s.48-3.72,1.43-5.2c.96-1.48,2.24-2.63,3.84-3.44,1.61-.82,3.38-1.22,5.31-1.22,2.88,0,5.09.9,6.61,2.7,1.33,1.56,2.08,3.71,2.26,6.42.04.69-.49,1.31-1.18,1.4l-10.17,1.3c.84,1.71,2.42,2.56,4.74,2.56ZM74.2,19.21l6-1.26c-.1-.81-.38-1.42-.84-1.82-.46-.39-1.03-.59-1.72-.59-1.02,0-1.83.35-2.43,1.05s-.93,1.58-1.01,2.62Z"/><path class="cls-1" d="M88.88,28.99V12.52c0-.74.6-1.34,1.34-1.34h5.27c.74,0,1.34.6,1.34,1.34v2.83c.59-1.43,1.46-2.52,2.62-3.29,1.16-.77,2.54-1.15,4.15-1.15,2.5,0,4.43.86,5.81,2.58,1.38,1.72,2.06,4.15,2.06,7.28v8.22c0,.74-.6,1.34-1.34,1.34h-5.38c-.74,0-1.34-.6-1.34-1.34v-8.64c0-2.27-.92-3.4-2.75-3.4-1.09,0-1.99.4-2.67,1.2-.69.8-1.03,1.88-1.03,3.23v7.6c0,.74-.6,1.34-1.34,1.34h-5.38c-.74,0-1.34-.6-1.34-1.34Z"/><path class="cls-1" d="M122.17,30.64c-1.71,0-3.09-.31-4.15-.92-1.06-.61-1.83-1.44-2.31-2.48-.48-1.04-.73-2.22-.73-3.52v-11.19c0-.74.6-1.34,1.34-1.34h5.38c.74,0,1.34.6,1.34,1.34v10.09c0,.59.17,1.04.52,1.36.34.32.76.48,1.24.48.51,0,1.03-.15,1.57-.46l.36,4.5c.04.55-.25,1.07-.74,1.31-1.15.56-2.73.84-3.82.84ZM120.8,1.32h-3.78c-1.24,0-2.25,1.01-2.25,2.25v2.78c0,1.24,1.01,2.25,2.25,2.25h3.78c1.24,0,2.25-1.01,2.25-2.25v-2.78c0-1.24-1.01-2.25-2.25-2.25Z"/><path class="cls-1" d="M137.01,30.64c-1.76,0-3.35-.43-4.78-1.28-1.43-.85-2.55-2.03-3.38-3.54-.83-1.5-1.24-3.22-1.24-5.16s.42-3.63,1.24-5.08c.83-1.45,1.96-2.59,3.38-3.42,1.43-.83,3.02-1.24,4.78-1.24,1.25,0,2.46.35,3.63,1.03,1.17.69,2.08,1.82,2.71,3.4v-2.83c0-.74.6-1.34,1.34-1.34h5.27c.74,0,1.34.6,1.34,1.34v16.47c0,.74-.6,1.34-1.34,1.34h-5.34c-.74,0-1.34-.6-1.34-1.34v-2.21c-.61,1.25-1.43,2.21-2.45,2.87-1.02.66-2.29,1-3.82,1ZM139.49,24.6c1.04,0,1.93-.38,2.67-1.13s1.11-1.67,1.11-2.77-.37-1.99-1.11-2.69-1.63-1.05-2.67-1.05c-1.1,0-2.01.37-2.75,1.11s-1.11,1.64-1.11,2.71.37,1.98,1.11,2.71,1.66,1.11,2.75,1.11Z"/><path class="cls-1" d="M169.42,30.64c-1.53,0-2.8-.33-3.82-1-1.02-.66-1.83-1.62-2.45-2.87v2.21c0,.74-.6,1.34-1.34,1.34h-5.34c-.74,0-1.34-.6-1.34-1.34V6.3c0-.67.49-1.23,1.15-1.33l5.42-.79c.81-.12,1.54.51,1.54,1.33v9.61c.61-1.45,1.48-2.52,2.62-3.19s2.32-1.01,3.57-1.01c1.78,0,3.38.42,4.8,1.24,1.41.83,2.53,1.97,3.36,3.42.83,1.45,1.24,3.15,1.24,5.08s-.42,3.66-1.24,5.16c-.83,1.51-1.95,2.68-3.36,3.54-1.42.85-3.02,1.28-4.8,1.28ZM166.94,24.6c1.09,0,2.01-.37,2.75-1.11s1.11-1.64,1.11-2.71-.37-1.97-1.11-2.71-1.66-1.11-2.75-1.11-1.94.35-2.68,1.05c-.74.7-1.11,1.6-1.11,2.69s.37,2.02,1.11,2.77,1.63,1.13,2.68,1.13Z"/><path class="cls-1" d="M189.22,30.64c-1.81,0-3.28-.31-4.41-.92-1.13-.61-1.96-1.44-2.47-2.48-.51-1.04-.77-2.22-.77-3.52V5.54c0-.67.49-1.23,1.15-1.33l5.38-.79c.81-.12,1.54.51,1.54,1.33v17.86c0,.59.19,1.04.57,1.36.38.32.88.48,1.49.48s1.22-.15,1.83-.46l.48,4.42c.06.59-.25,1.16-.79,1.4-1.23.55-2.87.84-4.01.84Z"/><path class="cls-1" d="M207.72,25.29c.74,0,1.52-.08,2.35-.23s1.67-.43,2.54-.84l.73,3.91c.11.6-.19,1.23-.76,1.46-.67.28-1.38.5-2.13.67-1.11.25-2.38.38-3.8.38-2.57,0-4.73-.42-6.48-1.26-1.74-.84-3.06-2-3.96-3.48-.89-1.48-1.34-3.19-1.34-5.12s.48-3.72,1.43-5.2c.96-1.48,2.24-2.63,3.84-3.44,1.61-.82,3.38-1.22,5.31-1.22,2.88,0,5.09.9,6.61,2.7,1.33,1.56,2.08,3.71,2.26,6.42.04.69-.49,1.31-1.18,1.4l-10.17,1.3c.84,1.71,2.42,2.56,4.74,2.56ZM202.37,19.21l6-1.26c-.1-.81-.38-1.42-.84-1.82-.46-.39-1.03-.59-1.72-.59-1.02,0-1.83.35-2.43,1.05-.6.7-.93,1.58-1.01,2.62Z"/><path class="cls-1" d="M223.2,30.64c-1.78,0-3.81-.31-5.55-.88-.64-.21-.99-.91-.83-1.57l.84-3.67c.58.31,1.39.57,2.41.78,1.02.22,1.92.32,2.71.32,1.27,0,1.91-.34,1.91-1.03,0-.33-.2-.57-.59-.73s-.9-.29-1.53-.4c-.62-.11-1.29-.27-2.01-.46-.71-.19-1.38-.48-2.01-.88-.62-.39-1.13-.96-1.53-1.7-.15-.27-.27-.58-.36-.92-.73-2.68.34-5.71,2.7-7.17,1.53-.95,3.54-1.43,6.01-1.43,1.07,0,2.07.08,3,.23.93.15,1.81.47,2.66.96l-.54,3.13c-.13.77-.89,1.26-1.64,1.06-.93-.25-1.88-.37-2.86-.37s-1.62.08-2.05.23c-.42.15-.63.41-.63.76,0,.28.2.5.61.65s.94.3,1.59.44,1.33.33,2.04.57c.71.24,1.4.58,2.05,1.01s1.18,1.01,1.59,1.74c.41.73.61,1.66.61,2.81,0,2.04-.75,3.63-2.25,4.78s-3.62,1.72-6.34,1.72Z"/></svg>